<mxfile host="app.diagrams.net" modified="2024-01-21T11:10:20.320Z" agent="Mozilla/5.0 (Windows NT 10.0; Win64; x64; rv:121.0) Gecko/20100101 Firefox/121.0" version="22.1.21" etag="sWErFb1B0AnECA6kOj5w" type="github">
  <diagram name="Page-1" id="Y86Kj6h-5uUhABfehZtZ">
    <mxGraphModel>
      <root>
        <mxCell id="0" />
        <mxCell id="1" parent="0" />
      </root>
    </mxGraphModel>
  </diagram>
</mxfile>
